<?xml version="1.0" encoding="utf-8"?>
<!-- Generator: Adobe Illustrator 23.0.1, SVG Export Plug-In . SVG Version: 6.00 Build 0)  -->
<svg version="1.1" id="Layer_1" xmlns="http://www.w3.org/2000/svg" xmlns:xlink="http://www.w3.org/1999/xlink" x="0px" y="0px"
	 viewBox="0 0 300 300" style="enable-background:new 0 0 300 300;" xml:space="preserve">
<style type="text/css">
	.st0{fill:#02559A;}
	.st1{fill:#EA2A3E;}
	.st2{fill:#FFFFFF;}
</style>
<path class="st0" d="M98.08,109.63c-9.96-10.11-39.29-21.14-63.7,4.48c-23.15,24.23-16.44,59.27-2.4,74.13
	c13.07,13.8,55.55,27.31,90.77-9.74c0.7,13.01,8.44,22.19,20.19,21.48c12.16-0.74,23.44-12.48,29.27-20.16
	c4.81,15.24,26.61,24.8,46.67,23.25c21.33-1.69,34.14-12.88,44.27-22.93c11.31-11.25,28.39-46.17,4.72-69.42
	c-14.86-14.52-40.87-9.27-51.21,0.72l22.01-59.44c6.47-15.66-2.46-25.29-13.57-27.83c-12.98-3-30.21-4.47-41.81,19.59
	c-1.61-16.06-17.75-20.04-22.5-21.18c-10.84-2.55-30.59,2.34-35.86,16.51L98.08,109.63"/>
<path class="st1" d="M98.08,109.63c-9.96-10.11-39.29-21.14-63.7,4.48c-23.15,24.23-16.44,59.27-2.4,74.13
	c13.07,13.8,55.55,27.31,90.77-9.74c13.77-15.09,29.89-52.3,32.93-62.77c-8.73,19.35-18.57,37.39-28.48,47.86
	c-10.75,11.46-25.25,18.53-40.82,19.38c-15.56,0.78-29.77-8.04-29.09-23.59c14.77,9.27,32.76,2.95,42.14-7.33
	c8.85-9.71,8.9-25.71,1.99-38.85C100.48,111.46,99.07,110.62,98.08,109.63"/>
<path class="st2" d="M154.28,25.45c-12.19,0.38-22.5,5.19-26.72,16.23l-26.43,71.17c7.32,12.89,7.15,29.49-1.7,39.2
	c-9.38,10.27-27.37,16.6-42.14,7.33c-0.68,15.55,13.54,24.36,29.09,23.59c15.56-0.85,30.06-7.92,40.82-19.38
	c19.75-20.98,39.41-72.03,50.34-103.93C187.62,30,164.1,25.14,154.28,25.45"/>
<path class="st2" d="M75.2,137.93c-4.02-3.55-12.66,0.48-15.62,11.36c4.75,3.36,10.96,3.24,14.41-0.3
	C77.63,145.31,78.92,141.2,75.2,137.93"/>
<path class="st0" d="M96.07,248.79H77.11v2.47c-0.23,9.13,1.91,12.72,6.19,12.72c3.31,0,5.65-3.23,5.65-8.33v-3.03l7.12-0.02v1.6
	c0,10.75-4.28,15.84-13.39,15.84c-11.22,0-16.38-7.24-16.38-22.93c0-14.41,5.49-22.54,15.74-22.37c8.54,0.14,14.04,6.85,14.04,17.75
	V248.79z M76.88,243.21h8.59v-1.27c0-3.75-0.48-6.9-1.04-8.5c-0.64-1.51-1.54-2.33-3.07-2.33c-1.61,0-2.58,0.72-3.39,2.55
	C77.24,235.41,76.96,238.68,76.88,243.21z"/>
<path class="st0" d="M172.93,230.17c2.54-3.58,6.51-5.41,11.91-5.41c5.33,0,9.3,1.83,11.83,5.41c2.53,3.66,3.8,9.39,3.8,17.2
	c0,15.6-4.9,22.69-15.63,22.69c-10.82,0-15.63-7-15.63-22.69C169.21,239.48,170.48,233.75,172.93,230.17z M189.59,247.56
	c0-7.01-0.51-11.73-1.1-13.72c-0.59-1.91-2.04-2.88-3.65-2.88c-1.69,0-3.17,0.94-3.75,2.77c-0.59,1.83-1.1,6.38-1.1,13.63
	c0,7.24,0.57,11.75,1.16,13.66c0.59,1.75,2.04,2.98,3.65,2.98c1.61,0,3.17-1.13,3.76-3.04
	C189.14,258.97,189.59,254.57,189.59,247.56z"/>
<path class="st0" d="M217.95,263.73c1.89,0.33,5.78,0.99,6.61-2.6c1.14-4.95-7.18-8.01-7.18-8.01c-4.48-2.11-8.4-4.73-9.12-5.36
	c-3.5-3.18-4.76-6.3-4.76-10.43c0-3.74,1.12-6.64,3.27-8.95c2.15-2.31,5.16-3.62,8.74-3.62c3.26,0,6.49,1.73,8.88,4.12l1.71-2.92
	l4.31,0.07v15.44l-5.14-0.07c-1.77-7.11-5.03-10.15-9.11-10.15c-2.47,0-4.73,1.32-4.73,3.55c0,1.2,0.49,2.21,1.52,3.24
	c0.95,1.12,3.42,2.08,5.97,3.51l3.74,2.15c2.63,1.43,4.14,2.39,4.62,2.87c3.79,2.8,5.29,5.73,5.29,11.2c0,3.74-1.62,6.79-3.77,8.94
	c-2.07,2.23-4.86,3.34-8.28,3.34c-4.14,0-8.1-1.72-11.04-4.66l-1.49,3.47h-4.34l0.01-16.84h5.33c0.24,3.74,1.87,6.02,3.54,8.45
	C214.4,263.2,217.95,263.73,217.95,263.73z"/>
<path class="st0" d="M111.12,263.37c-2.33-0.02-0.89-2.31-0.89-2.31l3.84-6.38l3.69,6.38c0,0,1.19,2.31-0.67,2.31
	c-1.14,0-1.63,0.01-1.63,0.01v5.47h18.48v-5.43c-2.86-0.04-4.56-1.42-5.83-3.65l-8.34-14.5l6.88-11.06
	c1.27-1.98,2.85-2.48,5.32-2.54h0.91c1.01,0,1.44,0.11,1.91,0.5c0.48,0.39,0.72,1.45,0.72,2.96v36.7c0.14,3.31-2.2,2.92-2.2,2.92
	h-2.6v5.73h26.14v-5.73h-7.11c-2.77-0.08-3.66-0.27-3.66-3.11v-5.28c2.14,2.93,5.23,3.92,8.49,3.92c8.34,0,11.99-8.26,11.99-22.9
	c0-7.17-0.88-12.54-2.87-16.44c-1.99-3.98-5.12-6.21-8.54-6.21c-3.26,0-6.44,1.59-9.07,5.33v-4.14h-12.74h-0.4H132h-1.29h-12.44
	v5.73h0.59c0,0,2.49-0.2,1.62,1.63c-0.87,1.82-3.81,6.75-3.81,6.75l-3.6-6.59c0,0-1-1.79,2.1-1.79h0.34v-5.73H97.65v5.73
	c1.7,0.05,3.25,1.01,4.35,3.16l8.74,14.58l-7.23,11.69c0,0-1.3,2.36-4.7,2.27l-1.32,0.01v5.47h15.12v-5.47
	C112.6,263.38,111.5,263.37,111.12,263.37z M147.18,235.1c0.68-1.99,1.95-3.02,3.73-3.02c1.78,0,3.05,1.03,3.73,3.1
	c0.76,1.99,1.1,6.05,1.1,12.18c0,6.29-0.2,10.44-0.96,12.35c-0.68,1.99-1.81,3.34-3.87,3.34c-1.86,0-3.13-1.44-3.81-3.43
	c-0.68-1.99-1.01-6.13-1.01-12.26C146.08,241.07,146.42,237.01,147.18,235.1z"/>
<path id="path6164_7_" class="st0" d="M234.62,226.11v0.32h1.03h1.03v2.81v2.81h0.43h0.43l0.02-2.78l0.03-2.77l1-0.03l0.99-0.03
	v-0.31v-0.32h-2.48h-2.48V226.11L234.62,226.11z"/>
<path id="path6166_7_" class="st0" d="M240.69,228.92v3.13h0.4h0.4v-2.61c0-1.44,0.02-2.58,0.06-2.55c0.06,0.05,1.88,5.02,1.88,5.13
	c0,0.02,0.18,0.03,0.41,0.01c0.48-0.03,0.38,0.16,1.66-3.43l0.6-1.67l0.03,2.56l0.02,2.57h0.4h0.4v-3.14v-3.13l-0.58,0.03
	l-0.59,0.03l-0.92,2.56c-0.5,1.41-0.95,2.57-0.98,2.57s-0.46-1.17-0.95-2.59l-0.89-2.59h-0.68h-0.67L240.69,228.92L240.69,228.92z"
	/>
</svg>
