<svg xmlns="http://www.w3.org/2000/svg" viewBox="0 0 165 236"><title>New York Mets Logo</title><path fill="#FF5910" d="M157.111 154.671c0-2.62-.81-5.148-2.28-7.316-2.361 3.628-6.1 5.35-10.366 4.317-3.77-.912-6.759-3.607-6.799-6.126v-57.29l.801.329c4.276 1.753 7.377 5.834 8.299 10.922.182 1.008.273 2.009.273 2.992 0 3.483-1.317 6.579-3.405 9.042 3.912-.78 15.454-4.302 15.454-18.874 0-13.45-10.863-21.676-20.956-23.626l-.466-.094V28.913c.04-2.523 3.03-5.214 6.799-6.125 4.266-1.034 8.006.686 10.366 4.317 1.47-2.171 2.28-4.7 2.28-7.319 0-3.526-1.307-7.131-3.861-9.948-5.614-6.204-14.917-6.225-24.868-.056l-.314.192-.304-.192c-9.962-6.168-19.254-6.148-24.878.059-2.543 2.814-3.851 6.42-3.851 9.941 0 2.622.821 5.15 2.29 7.324 2.361-3.636 6.101-5.353 10.377-4.317 3.76.914 6.749 3.605 6.79 6.136v44.732l-.324.164c-7.783 4.056-14.744 9.751-20.723 16.928l-.446.542-.456-.545S45.399 28.729 45.267 28.232c.577-2.635 4.002-5.12 7.803-5.655 3.871-.544 7.134 1.211 9.292 4.525 1.469-2.169 2.28-4.697 2.28-7.314 0-3.524-1.307-7.131-3.861-9.948-5.614-6.207-14.927-6.227-24.878-.059l-.304.192-.304-.192c-9.961-6.171-19.254-6.148-24.878.058-2.544 2.817-3.861 6.422-3.861 9.948 0 2.617.821 5.145 2.29 7.317 2.361-3.636 6.101-5.353 10.377-4.317 3.76.914 6.749 3.605 6.79 6.136v40.144l-.456.101C15.454 71.396 5.259 79.525 5.259 92.666c0 14.575 11.573 18.096 15.474 18.874-2.077-2.457-3.405-5.579-3.405-9.077 0-.801.061-1.614.183-2.432.739-4.991 3.607-9.151 7.671-11.124l.831-.408v57.047c-.04 2.518-3.03 5.203-6.79 6.116-4.276 1.044-8.016-.679-10.377-4.306-1.469 2.168-2.29 4.697-2.29 7.316 0 3.521 1.317 7.129 3.861 9.941 5.624 6.212 14.917 6.232 24.878.061l.304-.192.304.192c9.961 6.172 19.264 6.151 24.878-.061a14.864 14.864 0 0 0 3.861-9.941c0-2.625-.81-5.148-2.28-7.316-2.371 3.628-6.111 5.35-10.387 4.306-3.76-.912-6.749-3.597-6.79-6.125V92.712l.922.623c14.177 9.668 25.121 29.426 26.439 41.88v65.377c0 6.957-4.702 12.297-9.242 13.442-3.202.806-5.999-.593-7.944-3.532-1.439 2.139-2.25 4.57-2.25 7.043 0 3.101 1.125 6.207 3.354 8.659 5.513 6.101 15.007 5.903 25.364-.517l.304-.192.314.192c10.357 6.42 19.841 6.617 25.364.517a12.858 12.858 0 0 0 3.354-8.659c0-2.473-.821-4.905-2.26-7.048-1.875 2.807-4.56 4.139-7.661 3.364-4.601-1.16-9.525-6.769-9.525-13.27v-64.475c.294-4.449 2.017-10.179 4.854-16.145l.395-.836.588.717s20.774 25.536 20.906 25.962c-.253 2.584-3.435 5.198-7.235 5.953-1.996.401-6.769.603-9.962-4.317-1.419 2.153-2.229 4.641-2.229 7.22 0 3.527 1.307 7.134 3.851 9.946 5.624 6.207 14.917 6.227 24.878.056l.304-.192.314.192c9.951 6.172 19.254 6.151 24.868-.056a14.86 14.86 0 0 0 3.861-9.945zm-74.958-36.724l-.517-1.343C72.009 91.217 56.667 79.133 45.51 73.465l-.324-.162V55.521l41.558 51.053.213.304-4.804 11.069zm36.339-.588l-11.38-13.789.314-.373c3.192-3.709 6.607-6.863 10.134-9.371l.932-.656v24.189z"/></svg>